<svg version="1.1" id="Logo + Clínica Médica Arapuá" xmlns="http://www.w3.org/2000/svg" xmlns:xlink="http://www.w3.org/1999/xlink" x="0px" y="0px" height="510pt" width="1760pt" viewBox="0 0 1760 510" style="enable-background:new 0 0 1760 510;" xml:space="preserve">
	<g id="Estetoscópio" transform="matrix(1.16051, 0, 0, 1.16051, -762.541, -231.435)">
		<path id="Tubos Auriculares" fill="#000000" d="m1035.322266,406.495026c0,-31.868958 -26.121643,-57.992004 -57.991638,-57.992004s-57.992065,26.122009 -57.992065,57.992004c0,26.64502 17.763062,49.110046 42.317993,55.902039l0,61.649078c0,20.897949 -8.359009,40.228882 -23.509888,55.379883c-14.106079,14.629028 -33.959106,22.988037 -54.857056,22.988037c-43.363037,0 -78.367065,-35.004028 -78.367065,-78.366943l0,-88.294098c28.212036,-3.13501 54.857056,-16.195984 74.710083,-36.04895c23.51001,-23.51001 36.570923,-54.857056 36.570923,-88.81604l0,-74.189056c0,-8.881989 -6.791992,-15.673004 -15.672974,-15.673004l-50.154907,0l0,31.347015l34.481934,0l0,58.514069c0,25.599976 -9.927002,49.109985 -27.166992,66.872986c-17.762939,17.763 -41.796021,27.690002 -66.873047,27.690002c-51.721924,0 -94.041016,-42.317993 -94.041016,-94.041016l0,-59.037048l33.437012,0l0,-31.347015l-49.109985,0c-8.881958,0 -15.672974,6.792023 -15.672974,15.673004l0,74.710083c0,63.216003 47.02002,115.984009 108.146973,124.343018l0,88.293976c0,60.604004 49.109985,109.713989 109.713989,109.713989c29.780029,0 57.469116,-11.493896 77.322021,-32.391968c20.898071,-20.897949 32.391968,-48.064941 32.391968,-77.322021l0,-61.64798c24.554077,-6.791992 42.316711,-29.257019 42.316711,-55.902039zm-57.990662,26.64502c-15.151001,0 -26.64502,-11.494019 -26.64502,-26.64502c0,-15.151001 11.494019,-26.64502 26.64502,-26.64502s26.64502,11.494019 26.64502,26.64502c0,15.151001 -11.494019,26.64502 -26.64502,26.64502z"/>
		<path id="Fone Esquerdo" fill="#000000" d="m729.690613,269.091034c-8.88208,0 -15.672974,-6.791992 -15.672974,-15.673065l0,-33.437988c-0.001099,-8.881012 6.790894,-15.673004 15.672974,-15.673004s15.672974,6.791992 15.672974,15.673004l0,33.436981c0,8.88208 -6.791992,15.674072 -15.672974,15.674072z"/>
		<path id="Fone Direito" fill="#000000" d="m850.898621,269.091034c-8.88208,0 -15.673096,-6.791992 -15.673096,-15.673065l0,-33.437988c-0.000977,-8.881012 6.791016,-15.673004 15.673096,-15.673004s15.672974,6.791992 15.672974,15.673004l0,33.436981c0,8.88208 -6.791016,15.674072 -15.672974,15.674072z"/>
	</g>
	<rect id="Tampão do Auscultador" height="161.999182" width="136.251267" y="172.084138" x="303.083401" stroke-width="0" stroke="#000" rx="62" fill="#fff"/>
	<g id="Favo de Mel">
		<g transform="matrix(0.380707, 0, 0, 0.380707, -61.5748, -24.0052)">
			<polygon id="Hexágono Interno 1" fill="#FFA64D" points="983.666510105133,671.3731689453125 950.074469089508,615.3731689453125 983.666510105133,559.3731689453125 1036.4982361793518,559.3731689453125 1070.0901551246643,615.3731689453125 1036.4982361793518,671.3731689453125 "/>
			<polygon id="Hexágono Interno 2" fill="#FFA64D" points="1111.6660828590393,751.3731689453125 1078.0740418434143,695.3731689453125 1111.6660828590393,639.3731689453125 1164.4981141090393,639.3731689453125 1198.0901551246643,695.3731689453125 1164.4981141090393,751.3731689453125 "/>
			<polygon id="Hexágono Interno 3" fill="#FFA64D" points="983.666510105133,831.3731689453125 950.074469089508,775.3731689453125 983.666510105133,719.3731689453125 1036.4982361793518,719.3731689453125 1070.0901551246643,775.3731689453125 1036.4982361793518,831.3731689453125 "/>
			<polygon id="Hexágono Interno 4" fill="#FFA64D" points="1239.6660828590393,831.3731689453125 1206.0740418434143,775.3731689453125 1239.6660828590393,719.3731689453125 1292.4981141090393,719.3731689453125 1326.0901551246643,775.3731689453125 1292.4981141090393,831.3731689453125 "/>
			<polygon id="Hexágono Interno 5" fill="#FFA64D" points="1111.6660828590393,911.3731689453125 1078.0740418434143,855.3731689453125 1111.6660828590393,799.3731689453125 1164.4981141090393,799.3731689453125 1198.0901551246643,855.3731689453125 1164.4981141090393,911.3731689453125 "/>
		</g>
		<g transform="matrix(0.380707, 0, 0, 0.380707, -61.5748, -24.0052)">
			<polygon id="Sombra Interna 1" fill="#000000" points="1031.9623475074768,575.3731689453125 1031.9623475074768,559.3731689453125 983.666510105133,559.3731689453125 952.5465149879456,611.253173828125 966.2664856910706,619.4931640625 992.730474948883,575.3731689453125 "/>
			<polygon id="Sombra Interna 2" fill="#000000" points="1181.8981385231018,699.4931640625 1195.6181092262268,691.253173828125 1164.4981141090393,639.3731689453125 1116.2020936012268,639.3731689453125 1116.2020936012268,655.3731689453125 1155.4341492652893,655.3731689453125 "/>
			<polygon id="Sombra Interna 3" fill="#000000" points="966.2664856910706,771.253173828125 952.5465149879456,779.4931640625 983.666510105133,831.3731689453125 1031.9623475074768,831.3731689453125 1031.9623475074768,815.3731689453125 992.730474948883,815.3731689453125 "/>
			<polygon id="Sombra Interna 4" fill="#000000" points="1224.7300477027893,775.3731689453125 1251.0580506324768,731.4931640625 1237.3380799293518,723.253173828125 1206.0740418434143,775.3731689453125 1239.6660828590393,831.3731689453125 1290.0820984840393,831.3731689453125 1290.0820984840393,815.3731689453125 1248.7300477027893,815.3731689453125 "/>
			<polygon id="Sombra Interna 5" fill="#000000" points="1078.0740418434143,855.3731689453125 1109.3380799293518,907.4931640625 1123.0580506324768,899.253173828125 1096.7300477027893,855.3731689453125 1120.7300477027893,815.3731689453125 1130.0820984840393,815.3731689453125 1130.0820984840393,799.3731689453125 1111.6660828590393,799.3731689453125 "/>
			<rect id="Reta da Sombra Inerna 5" fill="#000000" height="16" width="16" y="799.373097" x="1146.08244"/>
			<path id="Contorno Externo" fill="#000000" d="m1230.610107,687.373169l-48,-80l-80,0l-48,-80l-89.055542,0l-52.800049,88l48,80l-48,80l52.800049,88l79.999634,0l48,80l89.063965,0l48,-80l80,0l52.799927,-88l-52.799927,-88l-80.008057,0zm-13.855957,8l-21.599976,36l-21.600098,36l-70.935913,0l-21.599976,-36l-21.600098,-36l21.600098,-36l21.599976,-36l70.935913,0l43.200073,72zm-242.143677,-152l70.935669,0l43.200073,72l-21.600098,36l-21.599976,36l-70.935669,0l-43.199951,-72l43.199951,-72zm-43.199951,232l43.199951,-72l70.935669,0l21.599976,36l21.600098,36l-21.600098,36l-21.599976,36l-70.935669,0l-43.199951,-72zm242.143555,152l-70.935913,0l-43.200073,-72l21.600098,-36l21.599976,-36l70.935913,0l21.600098,36l21.599976,36l-43.200073,72zm128,-80l-70.935913,0l-21.599976,-36l-21.600098,-36l21.600098,-36l21.599976,-36l70.935913,0l43.200073,72l-43.200073,72z"/>
			<path id="Abela" fill="#000000" d="m1383.498169,549.341187c-16.135986,-15.384033 -34.927979,-24.104004 -50.848022,-25.016052c1.832031,-3.968018 2.895996,-8.335999 2.895996,-12.952026c0,-6.855927 -2.287964,-13.175934 -6.104004,-18.383942l1.712036,-3.272034c6.671997,-12.711975 18.167969,-22.199951 32.375977,-26.719971l-4.8479,-15.248016c-18.248047,5.808014 -33.064087,18.071991 -41.704102,34.53598l-0.208008,0.392029c-4.368042,-2.047974 -9.216064,-3.304016 -14.400024,-3.304016s-10.031982,1.256042 -14.400024,3.304016l-0.208008,-0.392029c-8.631958,-16.471985 -23.439941,-28.735962 -41.695923,-34.53598l-4.839966,15.248016c14.208008,4.52002 25.703979,14.007996 32.36792,26.719971l1.719971,3.272034c-3.815918,5.208008 -6.104004,11.528015 -6.104004,18.383942c0,4.976013 1.280029,9.624023 3.39209,13.832092c-14.271973,2.66394 -30.063965,10.927979 -43.927979,24.143921c-16.656006,15.856079 -26.592041,35.160034 -26.592041,51.600098c0,9.039917 3.040039,16.711914 8.791992,22.191895c5.800049,5.52002 13.719971,8.168091 22.719971,8.168091c6.807983,0 14.23999,-1.600098 21.81604,-4.528076c6.968018,31.424072 25.391968,52.592041 46.959961,52.592041c22.264038,0 41.176025,-22.768066 47.592041,-55.583984c9.888062,4.887939 19.767944,7.52002 28.608032,7.52002c9,0 16.919922,-2.640015 22.719971,-8.168091c5.751953,-5.47998 8.791992,-13.151978 8.791992,-22.191895c0,-16.440063 -9.936035,-35.744019 -26.583984,-51.608032zm-77.416016,32.328003c1.832031,3.432007 4,6.839966 6.432007,10.199951c-4.208008,-0.287964 -8.408081,-0.384033 -12.648071,-0.312012c2.33606,-3.255981 4.440063,-6.559937 6.216064,-9.887939zm13.463989,-70.296082c0,8.81604 -7.703979,16.000061 -17.176025,16.000061c-9.463989,0 -17.160034,-7.184021 -17.160034,-16.000061c0,-8.823944 7.704102,-15.999969 17.160034,-15.999969c9.472046,0 17.176025,7.176025 17.176025,15.999969zm-97.631958,100.192078c-2.544067,-2.424072 -3.832031,-6 -3.832031,-10.615967c0,-11.976074 8.287964,-27.312012 21.631958,-40.032104c21.223999,-20.231934 45.616089,-25.159912 54.216064,-16.967896c2.536011,2.42395 3.831909,5.991943 3.831909,10.60791c0,11.968018 -8.287964,27.312012 -21.631958,40.040039c-21.215942,20.248047 -45.615967,25.18396 -54.215942,16.968018zm80.455933,51.807983c-9.504028,0 -18.631958,-8.343994 -25.015991,-21.47998c15.736084,-3.184082 34.255981,-3.200073 49.992065,-0.015991c-6.368042,13.095947 -15.440063,21.495972 -24.976074,21.495972zm30.528076,-36.624023c-19.128052,-4.287964 -41.928101,-4.312012 -61.05603,-0.047974c-0.631958,-2.391968 -1.208008,-4.839966 -1.664063,-7.384033c4.832031,-3.007935 9.57605,-6.559937 14.160034,-10.640015c14.87207,-2.104004 31.536011,-1.463989 45.488037,1.768066c1.791992,1.52002 3.608032,2.94397 5.447998,4.303955c-0.57605,4.160034 -1.368042,8.18396 -2.375977,12zm57.351929,-15.18396c-8.583984,8.208008 -32.983887,3.271973 -54.208008,-16.968018c-13.343994,-12.728027 -21.631958,-28.072021 -21.631958,-40.040039c0,-4.615967 1.287964,-8.18396 3.832031,-10.60791c2.615967,-2.496094 6.703979,-3.784058 11.719971,-3.784058c11.447998,0 27.735962,6.680054 42.495972,20.751953c13.335938,12.720093 21.624023,28.05603 21.624023,40.032104c0,4.615967 -1.288086,8.191895 -3.832031,10.615967z"/>
		</g>
	</g>
	<text id="Texto Clínica Médica" xml:space="preserve" text-anchor="start" font-family="'Trebuchet MS', Gadget, sans-serif" font-size="134" y="142.996052" x="695.021875" fill-opacity="null" stroke-opacity="null" stroke-width="0" stroke="#000" fill="#000000">Clínica Médica</text>
	<text id="Texto Arapuá" transform="matrix(1.69792, 0, 0, 1.69792, -282.51, -342.648)" xml:space="preserve" text-anchor="start" font-family="'Trebuchet MS', Gadget, sans-serif" font-size="250" y="446.490646" x="426.282206" fill-opacity="null" stroke-opacity="null" stroke-width="0" stroke="#000" fill="#000000">Arapuá</text>
</svg>