<svg version="1.1" id="Favo de Mel" xmlns="http://www.w3.org/2000/svg" xmlns:xlink="http://www.w3.org/1999/xlink" x="0px" y="0px" height="512pt" width="512pt" viewBox="0 0 512 512" style="enable-background:new 0 0 512 512;" xml:space="preserve">
	<path d="m431.667969 147.800781v-92.761719l-95.335938-55.039062-80.332031 46.382812-80.332031-46.382812-95.335938 55.039062v92.761719l-80.332031 46.382813v110.082031l80.332031 46.378906v92.761719l95.332031 55.039062 80.335938-46.378906 80.332031 46.378906 95.332031-55.039062v-92.761719l80.335938-46.378906v-110.082031zm-30-75.4375v75.4375l-65.332031 37.722657-65.335938-37.722657v-75.441406l65.332031-37.71875zm-145.667969 252.300781-65.332031-37.722656v-75.4375l65.332031-37.722656 65.332031 37.722656v75.441406zm-80.332031-290.023437 65.332031 37.71875v75.441406l-65.332031 37.722657-65.332031-37.722657v-75.4375zm-145.667969 252.304687v-75.441406l65.335938-37.722656 65.332031 37.722656v75.441406l-65.332031 37.71875zm80.332031 139.140626v-75.441407l65.332031-37.71875 65.335938 37.71875v75.441407l-65.332031 37.71875zm226 37.71875-65.332031-37.71875v-75.441407l65.332031-37.71875 65.332031 37.71875v75.441407zm145.667969-176.859376-65.332031 37.71875-65.332031-37.71875v-75.441406l65.332031-37.722656 65.332031 37.722656zm0 0"/>
</svg>