<svg version="1.1" id="Luiz Amichi" xmlns="http://www.w3.org/2000/svg" xmlns:xlink="http://www.w3.org/1999/xlink" x="0px" y="0px" width="279pt" height="140pt" viewBox="0 0 279 140" style="enable-background:new 0 0 279 140;" xml:space="preserve">
	<g transform="translate(0.0,140.0) scale(0.1,-0.1)" fill="#000000" stroke="none">
		<path d="M150 1145 l0 -225 150 0 150 0 0 45 0 45 -100 0 -100 0 0 180 0 180 -50 0 -50 0 0 -225z"/>
		<path d="M872 1208 c4 -183 10 -206 75 -255 33 -25 44 -28 118 -28 74 0 85 3 118 28 65 49 71 72 75 255 l4 162 -50 0 -51 0 -3 -149 c-3 -133 -5 -153 -24 -178 -17 -22 -30 -29 -65 -31 -37 -2 -49 1 -69 23 -24 26 -25 33 -28 181 l-3 154 -51 0 -50 0 4 -162z"/>
		<path d="M1730 1145 l0 -225 50 0 50 0 0 225 0 225 -50 0 -50 0 0 -225z"/>
		<path d="M2290 1330 l0 -40 110 0 c61 0 110 -3 110 -6 0 -4 -52 -71 -115 -150 -98 -122 -115 -149 -115 -179 l0 -35 190 0 190 0 0 45 0 44 -119 3 -119 3 114 142 c97 121 114 148 114 178 l0 35 -180 0 -180 0 0 -40z"/>
		<path d="M30 406 l0 -394 698 -3 c383 -2 1002 -2 1374 -1 l678 4 0 394 0 394 -1375 0 -1375 0 0 -394z m1825 225 c22 -10 49 -28 59 -40 20 -22 20 -22 -6 -47 l-25 -25 -38 25 c-75 51 -189 29 -235 -46 -24 -40 -27 -116 -5 -157 48 -93 177 -116 255 -46 15 13 20 12 44 -14 l28 -29 -36 -27 c-36 -27 -112 -55 -151 -55 -44 0 -126 32 -161 62 -91 80 -107 226 -34 326 60 83 206 118 305 73z m-1334 -216 c54 -121 98 -223 98 -227 1 -5 -18 -8 -41 -8 -42 0 -44 2 -65 50 l-22 50 -115 0 -115 0 -22 -50 c-21 -49 -22 -50 -65 -50 l-44 0 23 52 c13 29 59 133 102 231 l78 178 45 -3 46 -3 97 -220z m354 83 l69 -142 68 142 67 142 66 0 65 0 0 -230 0 -230 -45 0 -45 0 -1 173 0 172 -77 -152 c-102 -203 -97 -203 -201 5 l-80 157 0 -177 -1 -178 -40 0 -40 0 0 230 0 230 63 0 64 0 68 -142z m535 -88 l0 -230 -40 0 -40 0 0 230 0 230 40 0 40 0 0 -230z m690 130 l0 -100 110 0 110 0 0 100 0 100 40 0 40 0 0 -230 0 -230 -40 0 -40 0 0 95 0 95 -110 0 -110 0 0 -95 0 -95 -40 0 -40 0 0 230 0 230 40 0 40 0 0 -100z m510 -130 l0 -230 -40 0 -40 0 0 230 0 230 40 0 40 0 0 -230z"/>
		<path d="M338 454 c-21 -48 -36 -89 -34 -91 2 -2 37 -3 78 -1 l75 3 -41 88 -41 89 -37 -88z"/>
	</g>
</svg>