<svg version="1.1" id="Estetoscópio" xmlns="http://www.w3.org/2000/svg" xmlns:xlink="http://www.w3.org/1999/xlink" x="0px" y="0px" height="453pt" width="429pt" viewBox="0 0 429.453 429.453" style="enable-background:new 0 0 429.453 429.453;" xml:space="preserve">
	<path style="fill:#4DCFE0;" d="M341.682,159.869c23.51,0,42.318,18.808,42.318,42.318s-18.808,42.318-42.318,42.318 c-23.51,0-42.318-18.808-42.318-42.318S318.171,159.869,341.682,159.869z"/>
	<g>
		<path style="fill:#000000;" d="M399.673,202.188c0-31.869-26.122-57.992-57.992-57.992s-57.992,26.122-57.992,57.992 c0,26.645,17.763,49.11,42.318,55.902v61.649c0,20.898-8.359,40.229-23.51,55.38c-14.106,14.629-33.959,22.988-54.857,22.988 c-43.363,0-78.367-35.004-78.367-78.367v-88.294c28.212-3.135,54.857-16.196,74.71-36.049c23.51-23.51,36.571-54.857,36.571-88.816 V32.392c0-8.882-6.792-15.673-15.673-15.673h-50.155v31.347h34.482v58.514c0,25.6-9.927,49.11-27.167,66.873 c-17.763,17.763-41.796,27.69-66.873,27.69c-51.722,0-94.041-42.318-94.041-94.041V48.065h33.437V16.718h-49.11 c-8.882,0-15.673,6.792-15.673,15.673v74.71c0,63.216,47.02,115.984,108.147,124.343v88.294 c0,60.604,49.11,109.714,109.714,109.714c29.78,0,57.469-11.494,77.322-32.392c20.898-20.898,32.392-48.065,32.392-77.322V258.09 C381.91,251.298,399.673,228.833,399.673,202.188z M341.682,228.833c-15.151,0-26.645-11.494-26.645-26.645 c0-15.151,11.494-26.645,26.645-26.645s26.645,11.494,26.645,26.645C368.327,217.339,356.833,228.833,341.682,228.833z"/>
		<path style="fill:#000000;" d="M94.041,64.784c-8.882,0-15.673-6.792-15.673-15.673V15.673C78.367,6.792,85.159,0,94.041,0 s15.673,6.792,15.673,15.673V49.11C109.714,57.992,102.922,64.784,94.041,64.784z"/>
		<path style="fill:#000000;" d="M215.249,64.784c-8.882,0-15.673-6.792-15.673-15.673V15.673C199.575,6.792,206.367,0,215.249,0 s15.673,6.792,15.673,15.673V49.11C230.922,57.992,224.131,64.784,215.249,64.784z"/>
	</g>
</svg>